# xmcd
#
# Track frame offsets: 
#        183
#        12165
#        20998
#        32310
#        40123
#        52525
#        60000
#        72383
#        82585
#        93333
#        107330
#        116760
#        132645
#        144883
#        163228
#        178200
#        191710
#        207888
#
# Disc length: 2911 seconds
#
# Revision: 2
# Processed by: cddbd v1.4PL0 Copyright (c) Steve Scherf et al.
# Submitted via: ExactAudioCopy v0.90a11
#
DISCID=e40b5d12
DTITLE=Various Artist - Frosty's Christmas Party
DYEAR=1900
DGENRE=
TTITLE0=Sleigh Ride
TTITLE1=Frosty The Snowman
TTITLE2=Jingle Bell Rock
TTITLE3=We Wish You A Merry Christmas
TTITLE4=It Came Upon A Midnight Clear
TTITLE5=Deck The Halls
TTITLE6=Good King Wenceslas
TTITLE7=God Rest Ye Merry Gentlemen
TTITLE8=Away In A Manger
TTITLE9=Rockin' Around The Christmas Tree
TTITLE10=Rudolph
TTITLE11=Winter Wonderland
TTITLE12=Angels We Have Heard On High
TTITLE13=Silent Night
TTITLE14=O Little Town Of Bethlehem
TTITLE15=We Three Kings Of Orient Are
TTITLE16=The Holly And The Ivy
TTITLE17=Twas The Night Before Christmas
EXTD=
EXTT0=
EXTT1=
EXTT2=
EXTT3=
EXTT4=
EXTT5=
EXTT6=
EXTT7=
EXTT8=
EXTT9=
EXTT10=
EXTT11=
EXTT12=
EXTT13=
EXTT14=
EXTT15=
EXTT16=
EXTT17=
PLAYORDER=
